<?xml version="1.0" encoding="UTF-8" standalone="no"?>
<!-- Created with Inkscape (http://www.inkscape.org/) -->

<svg
   xmlns:dc="http://purl.org/dc/elements/1.1/"
   xmlns:cc="http://creativecommons.org/ns#"
   xmlns:rdf="http://www.w3.org/1999/02/22-rdf-syntax-ns#"
   xmlns:svg="http://www.w3.org/2000/svg"
   xmlns="http://www.w3.org/2000/svg"
   xmlns:sodipodi="http://sodipodi.sourceforge.net/DTD/sodipodi-0.dtd"
   xmlns:inkscape="http://www.inkscape.org/namespaces/inkscape"
   width="100"
   height="100"
   viewBox="0 0 26.458001 26.458"
   version="1.1"
   id="svg8"
   inkscape:version="0.92.2 (5c3e80d, 2017-08-06)"
   sodipodi:docname="logo-grey.svg">
  <defs
     id="defs2">
    <inkscape:path-effect
       effect="bspline"
       id="path-effect821"
       is_visible="true"
       weight="33.333333"
       steps="2"
       helper_size="0"
       apply_no_weight="true"
       apply_with_weight="true"
       only_selected="false" />
  </defs>
  <sodipodi:namedview
     id="base"
     pagecolor="#ffffff"
     bordercolor="#666666"
     borderopacity="1.0"
     inkscape:pageopacity="0.0"
     inkscape:pageshadow="2"
     inkscape:zoom="4"
     inkscape:cx="18.574763"
     inkscape:cy="67.433559"
     inkscape:document-units="px"
     inkscape:current-layer="layer1"
     showgrid="false"
     showborder="true"
     showguides="false"
     inkscape:window-width="1920"
     inkscape:window-height="1001"
     inkscape:window-x="-9"
     inkscape:window-y="-9"
     inkscape:window-maximized="1"
     units="px" />
  <metadata
     id="metadata5">
    <rdf:RDF>
      <cc:Work
         rdf:about="">
        <dc:format>image/svg+xml</dc:format>
        <dc:type
           rdf:resource="http://purl.org/dc/dcmitype/StillImage" />
        <dc:title></dc:title>
      </cc:Work>
    </rdf:RDF>
  </metadata>
  <g
     inkscape:label="Layer 1"
     inkscape:groupmode="layer"
     id="layer1"
     transform="translate(0,-270.53825)">
    <path
       style="opacity:1;fill:#ffffff;fill-opacity:1;stroke:#cccccc;stroke-width:0.83176547;stroke-miterlimit:4;stroke-dasharray:none;stroke-opacity:1"
       d="m 13.304367,271.27069 -12.61389646,0.35454 c 0,11.26436 0.68674496,22.43484 12.61389646,24.55308 11.927154,-2.11824 12.613834,-13.28872 12.613834,-24.55308 z"
       id="rect909"
       inkscape:connector-curvature="0" />
    <g
       id="g882"
       transform="matrix(0.03300219,0,0,0.03300219,1.037843,271.6576)">
      <path
         id="path876"
         d="m 216.013,168.477 v 0 c 0,0.121 -0.078,0.18 -0.078,0.259 0,-0.079 0.078,-0.138 0.078,-0.259 z"
         inkscape:connector-curvature="0"
         style="fill:#ffffff" />
      <path
         id="path878"
         d="m 1.043,10.18 c -1.304,45.635 -4.798,228.06 16.432,335.763 18.292,94.227 54.484,180.521 119.248,267.944 11.746,-24.444 29.608,-45.636 52.064,-61.252 8.572,-6.688 11.274,-9.464 17.667,-15.297 -2.428,0.097 2.497,0.06 -0.043,0.06 8.495,-7.481 15.634,-16.411 21.031,-26.393 5.241,-10.275 9.128,-21.03 11.986,-32.205 4.444,-13.904 11.506,-26.904 20.474,-38.231 0.676,-2.479 1.192,-5.061 2.187,-7.519 4.401,-12.424 11.942,-23.217 21.587,-31.868 -0.282,-2.005 -0.198,-4.048 -0.6,-6.092 -0.988,-5.475 -1.587,-10.992 -1.587,-16.569 0,-2.141 0.085,-4.265 0.239,-6.328 -0.239,-6.33 -1.982,-12.52 -4.917,-17.875 -4.53,-5.338 -8.254,-11.174 -11.986,-17.006 -11.91,-7.857 -22.144,-18.157 -29.722,-30.459 -9.961,-11.625 -22.026,-20.973 -35.281,-28.396 -3.415,0.083 -6.985,0.263 -10.478,0.378 -7.697,0.458 -15.436,0.694 -23.176,0.694 -13.332,0 -26.907,-0.989 -40.24,-2.478 -1.186,1.169 -2.498,2.083 -3.57,3.234 -3.098,3.71 -4.685,8.292 -4.685,13.175 0,2.085 0.284,4.186 1.037,6.25 3.571,10.495 7.621,20.772 12.064,30.812 0,0.159 0,0.262 0,0.301 0,0.455 -0.317,0.771 -0.755,0.771 -0.162,0 -0.283,0 -0.36,-0.038 -19.048,-13.951 -31.825,-34.862 -35.556,-58.257 -1.152,-5.674 -1.666,-11.39 -1.666,-17.223 0,-14.605 3.571,-28.929 10.477,-41.846 12.064,-18.117 31.112,-29.822 52.305,-32.559 4.248,-5.636 10.313,-9.508 17.222,-10.754 9.721,-2.064 19.837,-3.175 29.84,-3.175 4.601,0 9.208,0.334 13.729,0.732 0.396,-1.489 0.396,-1.35 0.797,-2.838 -0.558,0 -0.558,-0.177 -1.116,-0.177 0,0 -0.635,-0.196 -0.712,-0.196 -2.342,0 -3.811,-2.978 -3.811,-5.101 0,-0.377 0.079,-0.755 0.079,-1.03 3.253,-13.016 12.304,-23.733 24.607,-28.89 14.639,-6.194 30.393,-9.901 46.23,-11.074 19.718,-1.667 39.323,-2.499 59.008,-2.499 8.415,0 16.705,0.136 25.157,0.337 h -0.077 c -3.014,2.339 -5.672,4.959 -7.938,8.017 4.289,-0.281 8.734,-0.34 13.016,-0.34 0.481,0 1.03,0 1.468,0.021 V 0 C 248.753,-0.039 124.822,3.355 1.043,10.18 Z"
         inkscape:connector-curvature="0"
         style="fill:#666666" />
      <path
         id="path880"
         d="M 743.014,10.339 C 619.199,3.471 495.388,0.021 371.493,0 v 124.685 c 9.404,0 18.972,0.52 28.3,1.412 -4.41,0.913 -8.616,2.818 -11.954,5.752 14.134,1.986 28.256,3.196 42.552,3.414 2.97,0.138 5.672,1.764 6.899,4.403 1.466,2.66 3.138,5.182 4.88,7.581 1.312,2.003 3.568,3.152 5.996,3.372 4.602,0.141 9.045,0.279 13.49,0.279 1.586,0 3.098,0 4.599,0 0.086,0 0.162,0 0.162,0 3.612,0 6.747,2.304 7.621,5.774 0.753,2.063 1.545,4.147 2.342,6.25 1.149,2.917 4.009,4.919 7.224,4.981 2.497,0.174 5.038,0.236 7.654,0.236 1.826,0 3.734,-0.062 5.636,-0.062 0,0 0.124,0 0.166,0 2.375,0 4.52,1.013 6.145,2.803 2.34,2.479 4.88,4.762 7.302,7.198 13.812,4.446 26.905,10.996 38.893,19.644 -10.355,-3.252 -20.954,-4.921 -31.748,-4.921 -1.07,0 -2.021,0 -3.054,0.083 7.938,5.671 16.347,10.793 25.236,15.058 14.131,6.212 26.829,15.435 37.262,26.946 -11.703,-3.158 -23.131,-7.919 -33.688,-14.027 -5.24,-2.561 0.868,4.881 4.524,9.541 1.825,1.789 5.554,5.299 8.571,7.86 5.63,4.385 11.865,7.915 18.567,10.476 8.492,4.15 14.802,11.965 17.141,21.391 1.513,7.581 4.886,14.583 9.766,20.515 -8.33,-7.22 -17.063,-14.006 -25.875,-20.673 1.987,5.414 4.047,10.772 6.037,16.168 4.603,3.394 9.121,6.826 13.807,10.281 8.336,6.189 14.048,15.495 15.797,25.793 2.422,14.523 6.702,28.729 12.854,42.164 -6.351,-11.866 -12.417,-23.792 -18.251,-35.757 -0.517,-0.573 -0.995,-1.17 -1.35,-1.726 -1.271,6.964 -2.065,13.949 -2.065,21.054 0,0.378 0,0.731 0,1.034 4.445,10.196 8.015,20.792 10.117,31.784 -0.118,1.823 -0.118,3.591 -0.118,5.375 0,0.039 0,0.182 0,0.38 6.434,12.736 9.925,26.845 9.925,41.291 0,3.353 -0.238,6.864 -0.677,10.278 -0.198,-1.013 -0.756,-1.808 -0.995,-2.839 -0.91,5.675 -1.58,11.41 -1.819,17.184 1.071,2.062 2.222,4.049 3.253,6.29 5.988,17.263 8.888,35.575 8.888,53.931 0,7.814 -0.438,15.653 -1.587,23.473 -0.318,-0.731 -0.438,-1.568 -0.679,-2.283 l -1.069,9.526 -2.938,45.517 C 678.961,509.94 710.159,431.207 726.745,345.946 747.616,238.381 744.201,56.252 743.014,10.339 Z"
         inkscape:connector-curvature="0"
         style="fill:#999999" />
    </g>
  </g>
</svg>
