<?xml version="1.0" encoding="utf-8"?>
<!-- Generator: Adobe Illustrator 16.0.0, SVG Export Plug-In . SVG Version: 6.00 Build 0)  -->
<!DOCTYPE svg PUBLIC "-//W3C//DTD SVG 1.1//EN" "http://www.w3.org/Graphics/SVG/1.1/DTD/svg11.dtd">
<svg version="1.1" id="Layer_1" xmlns="http://www.w3.org/2000/svg" xmlns:xlink="http://www.w3.org/1999/xlink" x="0px" y="0px"
	 width="743.971px" height="613.889px" viewBox="0 0 743.971 613.889" enable-background="new 0 0 743.971 613.889"
	 xml:space="preserve">
<g>
	<path fill="#FFFFFF" d="M216.013,168.477L216.013,168.477c0,0.121-0.078,0.18-0.078,0.259
		C215.935,168.657,216.013,168.598,216.013,168.477z"/>
	<path fill="#2A3B8E" d="M1.043,10.18c-1.304,45.635-4.798,228.06,16.432,335.763c18.292,94.227,54.484,180.521,119.248,267.944
		c11.746-24.444,29.608-45.636,52.064-61.252c8.572-6.688,11.274-9.464,17.667-15.297c-2.428,0.097,2.497,0.06-0.043,0.06
		c8.495-7.481,15.634-16.411,21.031-26.393c5.241-10.275,9.128-21.03,11.986-32.205c4.444-13.904,11.506-26.904,20.474-38.231
		c0.676-2.479,1.192-5.061,2.187-7.519c4.401-12.424,11.942-23.217,21.587-31.868c-0.282-2.005-0.198-4.048-0.6-6.092
		c-0.988-5.475-1.587-10.992-1.587-16.569c0-2.141,0.085-4.265,0.239-6.328c-0.239-6.33-1.982-12.52-4.917-17.875
		c-4.53-5.338-8.254-11.174-11.986-17.006c-11.91-7.857-22.144-18.157-29.722-30.459c-9.961-11.625-22.026-20.973-35.281-28.396
		c-3.415,0.083-6.985,0.263-10.478,0.378c-7.697,0.458-15.436,0.694-23.176,0.694c-13.332,0-26.907-0.989-40.24-2.478
		c-1.186,1.169-2.498,2.083-3.57,3.234c-3.098,3.71-4.685,8.292-4.685,13.175c0,2.085,0.284,4.186,1.037,6.25
		c3.571,10.495,7.621,20.772,12.064,30.812c0,0.159,0,0.262,0,0.301c0,0.455-0.317,0.771-0.755,0.771c-0.162,0-0.283,0-0.36-0.038
		c-19.048-13.951-31.825-34.862-35.556-58.257c-1.152-5.674-1.666-11.39-1.666-17.223c0-14.605,3.571-28.929,10.477-41.846
		c12.064-18.117,31.112-29.822,52.305-32.559c4.248-5.636,10.313-9.508,17.222-10.754c9.721-2.064,19.837-3.175,29.84-3.175
		c4.601,0,9.208,0.334,13.729,0.732c0.396-1.489,0.396-1.35,0.797-2.838c-0.558,0-0.558-0.177-1.116-0.177
		c0,0-0.635-0.196-0.712-0.196c-2.342,0-3.811-2.978-3.811-5.101c0-0.377,0.079-0.755,0.079-1.03
		c3.253-13.016,12.304-23.733,24.607-28.89c14.639-6.194,30.393-9.901,46.23-11.074c19.718-1.667,39.323-2.499,59.008-2.499
		c8.415,0,16.705,0.136,25.157,0.337h-0.077c-3.014,2.339-5.672,4.959-7.938,8.017c4.289-0.281,8.734-0.34,13.016-0.34
		c0.481,0,1.03,0,1.468,0.021V0C248.753-0.039,124.822,3.355,1.043,10.18z"/>
	<path fill="#EA2127" d="M743.014,10.339C619.199,3.471,495.388,0.021,371.493,0v124.685c9.404,0,18.972,0.52,28.3,1.412
		c-4.41,0.913-8.616,2.818-11.954,5.752c14.134,1.986,28.256,3.196,42.552,3.414c2.97,0.138,5.672,1.764,6.899,4.403
		c1.466,2.66,3.138,5.182,4.88,7.581c1.312,2.003,3.568,3.152,5.996,3.372c4.602,0.141,9.045,0.279,13.49,0.279
		c1.586,0,3.098,0,4.599,0c0.086,0,0.162,0,0.162,0c3.612,0,6.747,2.304,7.621,5.774c0.753,2.063,1.545,4.147,2.342,6.25
		c1.149,2.917,4.009,4.919,7.224,4.981c2.497,0.174,5.038,0.236,7.654,0.236c1.826,0,3.734-0.062,5.636-0.062c0,0,0.124,0,0.166,0
		c2.375,0,4.52,1.013,6.145,2.803c2.34,2.479,4.88,4.762,7.302,7.198c13.812,4.446,26.905,10.996,38.893,19.644
		c-10.355-3.252-20.954-4.921-31.748-4.921c-1.07,0-2.021,0-3.054,0.083c7.938,5.671,16.347,10.793,25.236,15.058
		c14.131,6.212,26.829,15.435,37.262,26.946c-11.703-3.158-23.131-7.919-33.688-14.027c-5.24-2.561,0.868,4.881,4.524,9.541
		c1.825,1.789,5.554,5.299,8.571,7.86c5.63,4.385,11.865,7.915,18.567,10.476c8.492,4.15,14.802,11.965,17.141,21.391
		c1.513,7.581,4.886,14.583,9.766,20.515c-8.33-7.22-17.063-14.006-25.875-20.673c1.987,5.414,4.047,10.772,6.037,16.168
		c4.603,3.394,9.121,6.826,13.807,10.281c8.336,6.189,14.048,15.495,15.797,25.793c2.422,14.523,6.702,28.729,12.854,42.164
		c-6.351-11.866-12.417-23.792-18.251-35.757c-0.517-0.573-0.995-1.17-1.35-1.726c-1.271,6.964-2.065,13.949-2.065,21.054
		c0,0.378,0,0.731,0,1.034c4.445,10.196,8.015,20.792,10.117,31.784c-0.118,1.823-0.118,3.591-0.118,5.375c0,0.039,0,0.182,0,0.38
		c6.434,12.736,9.925,26.845,9.925,41.291c0,3.353-0.238,6.864-0.677,10.278c-0.198-1.013-0.756-1.808-0.995-2.839
		c-0.91,5.675-1.58,11.41-1.819,17.184c1.071,2.062,2.222,4.049,3.253,6.29c5.988,17.263,8.888,35.575,8.888,53.931
		c0,7.814-0.438,15.653-1.587,23.473c-0.318-0.731-0.438-1.568-0.679-2.283l-1.069,9.526l-2.938,45.517
		c53.729-78.949,84.927-157.682,101.513-242.943C747.616,238.381,744.201,56.252,743.014,10.339z"/>
</g>
</svg>
